<svg xmlns="http://www.w3.org/2000/svg" width="64" height="64" fill="none" viewBox="0 0 64 64"><path fill="url(#paint0_linear)" d="M28.6 35.8L22.4 39.4L22.1 45.9L12.9 49.8L1.5 50.8L3.9 9.8L27.4 0L52.8 23.3L28.6 35.8Z"/><path fill="url(#paint1_linear)" d="M43.5 10.9L63.6 24.4L56.8 39.4L45.6 36.2H35.8L43.5 10.9Z"/><path fill="url(#paint2_linear)" d="M32.7001 47.4L15.8 8L27.4 0L63.5 24.4L32.7001 47.4Z"/><path fill="url(#paint3_linear)" d="M3.90002 9.8L27.4 0L15.8 8L3.90002 9.8Z"/><path fill="url(#paint4_linear)" d="M3.9 9.8L27.4 0L15.8 8L0 51.2L3.9 9.8Z"/><path fill="#21D789" d="M24 21.2L34.4 54.8L21.9 64L0 51.2L5.8 35L23.4 17L24 21.2Z"/><path fill="url(#paint5_linear)" d="M19.6 47.5L0 51.2L21.9 64L34.4 54.8L19.6 47.5Z"/><path fill="url(#paint6_linear)" d="M19.6 47.5L0 51.2L5.8 35L23.4 17L19.6 47.5Z"/><path fill="url(#paint7_linear)" d="M24.9 46L34.3 54.8L21.9 64L24.9 46Z"/><path fill="url(#paint8_linear)" d="M64 57.3L44.5 63.9L18.5 56.6L23.4 17L47.6 0L50 17.6L43.4 31.9L56 27L58.6 36.7L64 57.3Z"/><path fill="url(#paint9_linear)" d="M64 57.3L44.5 63.9L56 27L64 57.3Z"/><path fill="url(#paint10_linear)" d="M47.5999 0L38.4 20.4L31.2 36.3L43.4 31.9L50.2 17.5L47.5999 0Z"/><path fill="url(#paint11_linear)" d="M3.90002 9.8L27.4 0L15.8 8L3.90002 9.8Z"/><path fill="url(#paint12_linear)" d="M64 57.3L44.5 63.9L18.5 56.6L34.2 54.9L64 57.3Z"/><path fill="url(#paint13_linear)" d="M47 55.9L44.5 63.9L64 57.3L47 55.9Z"/><path fill="url(#paint14_linear)" d="M52 12H12V52H52V12Z"/><g opacity=".3"><path fill="url(#paint15_linear)" d="M52 32.9333V16.6667L49.6 15.0667L50 17.6L43.4667 31.8667L52 28.5333V32.9333Z" opacity=".3"/><path fill="url(#paint16_linear)" d="M52.0001 52V28.5333L43.4668 31.8667L50.0001 17.6L49.2001 12H30.5334L23.3334 17.0667L19.0668 52H52.0001Z" opacity=".3"/><path fill="url(#paint17_linear)" d="M38.4001 20.4L31.2001 36.2667L43.4667 31.8667L50.1334 17.4667L49.3334 12H42.2667L38.4001 20.4Z" opacity=".3"/><path fill="url(#paint18_linear)" d="M17.4667 12H12V28.6667L20.8 19.6L17.4667 12Z" opacity=".3"/><path fill="url(#paint19_linear)" d="M12 48.9333L19.6 47.4667L23.3333 17.0667L12 28.6667V48.9333Z" opacity=".3"/></g><path fill="#fff" d="M32 44.45H17V46.95H32V44.45Z"/><path fill="#fff" d="M17 16.9H23.1C26.7 16.9 28.8 19 28.8 22.1C28.8 25.6 26.1 27.4 22.7 27.4H20.3V31.9H17V16.9ZM22.9 24.5C24.5 24.5 25.5 23.5 25.5 22.2C25.5 20.7 24.5 19.9 22.8 19.9H20.3V24.5H22.9Z"/><path fill="#fff" d="M30.7 24.4C30.7 20.1 33.9 16.6 38.5 16.6C41.3 16.6 43 17.5 44.4 18.9L42.2999 21.3C41.0999 20.3 40 19.6 38.5 19.6C36 19.6 34.2 21.7 34.2 24.3C34.2 26.9 36 29 38.5 29C40.2 29 41.3 28.3 42.4 27.2L44.5 29.3C43 30.9 41.1999 32 38.4 32C33.9 32.1 30.7 28.7 30.7 24.4Z"/><defs><linearGradient id="paint0_linear" x1="-21.079" x2="56.264" y1="53.05" y2="-4.045" gradientUnits="userSpaceOnUse"><stop offset=".011" stop-color="#FCF84A"/><stop offset=".112" stop-color="#A7EB62"/><stop offset=".206" stop-color="#5FE077"/><stop offset=".273" stop-color="#32DA84"/><stop offset=".306" stop-color="#21D789"/><stop offset=".577" stop-color="#21D789"/><stop offset=".597" stop-color="#21D789"/><stop offset=".686" stop-color="#20D68C"/><stop offset=".763" stop-color="#1ED497"/><stop offset=".835" stop-color="#19D1A9"/><stop offset=".904" stop-color="#13CCC2"/><stop offset=".971" stop-color="#0BC6E1"/><stop offset="1" stop-color="#07C3F2"/></linearGradient><linearGradient id="paint1_linear" x1="45.261" x2="54.595" y1="16.318" y2="45.833" gradientUnits="userSpaceOnUse"><stop offset="0" stop-color="#009AE5"/><stop offset="1" stop-color="#07C3F2"/></linearGradient><linearGradient id="paint2_linear" x1="8.069" x2="56.782" y1="13.733" y2="35.786" gradientUnits="userSpaceOnUse"><stop offset=".034" stop-color="#10E899"/><stop offset=".174" stop-color="#13E596"/><stop offset=".295" stop-color="#1EDA8C"/><stop offset=".319" stop-color="#21D789"/><stop offset=".398" stop-color="#20D68C"/><stop offset=".465" stop-color="#1ED497"/><stop offset=".529" stop-color="#19D1A9"/><stop offset=".59" stop-color="#13CCC2"/><stop offset=".649" stop-color="#0BC6E1"/><stop offset=".675" stop-color="#07C3F2"/><stop offset=".921" stop-color="#07EBFF"/></linearGradient><linearGradient id="paint3_linear" x1="18.394" x2="14.122" y1="9.008" y2="2.633" gradientUnits="userSpaceOnUse"><stop offset="0" stop-color="#07C3F2"/><stop offset=".195" stop-color="#0BC6E2"/><stop offset=".575" stop-color="#15CEB8"/><stop offset=".946" stop-color="#21D789"/></linearGradient><linearGradient id="paint4_linear" x1="-7.052" x2="17.854" y1="15.237" y2="27.69" gradientUnits="userSpaceOnUse"><stop offset=".03" stop-color="#C1EF5B"/><stop offset=".249" stop-color="#9DEA65"/><stop offset=".732" stop-color="#41DC80"/><stop offset=".896" stop-color="#21D789"/></linearGradient><linearGradient id="paint5_linear" x1="24.556" x2="10.227" y1="35.013" y2="69.914" gradientUnits="userSpaceOnUse"><stop offset=".103" stop-color="#087CFA"/><stop offset=".227" stop-color="#0C89EA" stop-opacity=".806"/><stop offset=".472" stop-color="#15ABC0" stop-opacity=".427"/><stop offset=".747" stop-color="#21D789" stop-opacity="0"/></linearGradient><linearGradient id="paint6_linear" x1="11.259" x2="12.09" y1="15.38" y2="51.212" gradientUnits="userSpaceOnUse"><stop offset=".011" stop-color="#FCF84A"/><stop offset=".092" stop-color="#ECF64F"/><stop offset=".253" stop-color="#C1EF5B"/><stop offset=".475" stop-color="#7DE56F"/><stop offset=".747" stop-color="#21D789"/></linearGradient><linearGradient id="paint7_linear" x1="21.95" x2="34.256" y1="54.983" y2="54.983" gradientUnits="userSpaceOnUse"><stop offset="0" stop-color="#13A5C7"/><stop offset="1" stop-color="#21D789"/></linearGradient><linearGradient id="paint8_linear" x1="77.137" x2="11.471" y1="59.855" y2="12.834" gradientUnits="userSpaceOnUse"><stop offset=".473" stop-color="#FCF84A"/><stop offset=".532" stop-color="#ECF74C"/><stop offset=".647" stop-color="#C1F451"/><stop offset=".806" stop-color="#7EEF5A"/><stop offset=".949" stop-color="#3BEA62"/></linearGradient><linearGradient id="paint9_linear" x1="75.378" x2="22.97" y1="41.195" y2="50.088" gradientUnits="userSpaceOnUse"><stop offset=".276" stop-color="#FCF84A"/><stop offset=".365" stop-color="#ECF74C"/><stop offset=".54" stop-color="#C1F451"/><stop offset=".782" stop-color="#7EEF5A"/><stop offset="1" stop-color="#3BEA62"/></linearGradient><linearGradient id="paint10_linear" x1="54.923" x2="35.12" y1="39.695" y2="12.198" gradientUnits="userSpaceOnUse"><stop offset=".122" stop-color="#FCF84A"/><stop offset=".202" stop-color="#F3F74B"/><stop offset=".335" stop-color="#DAF350"/><stop offset=".504" stop-color="#B1ED56"/><stop offset=".703" stop-color="#78E55F"/><stop offset=".924" stop-color="#30DB6B"/><stop offset="1" stop-color="#16D76F"/></linearGradient><linearGradient id="paint11_linear" x1="5.56" x2="23.396" y1="3.899" y2="5.693" gradientUnits="userSpaceOnUse"><stop offset="0" stop-color="#FCF84A"/><stop offset=".164" stop-color="#D8F957"/><stop offset=".529" stop-color="#7BFC79"/><stop offset=".986" stop-color="#00FFA6"/></linearGradient><linearGradient id="paint12_linear" x1="62.918" x2="13.371" y1="54.888" y2="63.294" gradientUnits="userSpaceOnUse"><stop offset=".09" stop-color="#3BEA62"/><stop offset=".168" stop-color="#67ED5C"/><stop offset=".25" stop-color="#8FF058"/><stop offset=".338" stop-color="#B1F353"/><stop offset=".432" stop-color="#CCF550"/><stop offset=".533" stop-color="#E1F64D"/><stop offset=".645" stop-color="#F0F74B"/><stop offset=".776" stop-color="#F9F84A"/><stop offset=".974" stop-color="#FCF84A"/></linearGradient><linearGradient id="paint13_linear" x1="49.18" x2="59.417" y1="53.687" y2="67.618" gradientUnits="userSpaceOnUse"><stop offset="0" stop-color="#3BEA62"/><stop offset=".088" stop-color="#67ED5C"/><stop offset=".181" stop-color="#8FF058"/><stop offset=".281" stop-color="#B1F353"/><stop offset=".387" stop-color="#CCF550"/><stop offset=".501" stop-color="#E1F64D"/><stop offset=".627" stop-color="#F0F74B"/><stop offset=".776" stop-color="#F9F84A"/><stop offset="1" stop-color="#FCF84A"/></linearGradient><linearGradient id="paint14_linear" x1="11.383" x2="52.33" y1="15.192" y2="48.574" gradientUnits="userSpaceOnUse"><stop offset="0" stop-color="#2C4915"/><stop offset=".479"/></linearGradient><linearGradient id="paint15_linear" x1="45.12" x2="54.393" y1="22.844" y2="27.042" gradientUnits="userSpaceOnUse"><stop offset=".319" stop-color="#21D789" stop-opacity="0"/><stop offset=".421" stop-color="#20D68C" stop-opacity=".221"/><stop offset=".509" stop-color="#1ED497" stop-opacity=".411"/><stop offset=".592" stop-color="#19D1A9" stop-opacity=".59"/><stop offset=".671" stop-color="#13CCC2" stop-opacity=".762"/><stop offset=".748" stop-color="#0BC6E1" stop-opacity=".927"/><stop offset=".781" stop-color="#07C3F2"/></linearGradient><linearGradient id="paint16_linear" x1="21.272" x2="53.496" y1="21.516" y2="47.787" gradientUnits="userSpaceOnUse"><stop offset=".027" stop-color="#FCF84A"/><stop offset=".094" stop-color="#E5E543"/><stop offset=".336" stop-color="#94A22C"/><stop offset=".551" stop-color="#556D19"/><stop offset=".731" stop-color="#27470B"/><stop offset=".869" stop-color="#0B3003"/><stop offset=".949" stop-color="#002700"/></linearGradient><linearGradient id="paint17_linear" x1="32.667" x2="43.451" y1="3.54" y2="32.721" gradientUnits="userSpaceOnUse"><stop offset=".122" stop-color="#21D789"/><stop offset=".244" stop-color="#1FCE80"/><stop offset=".446" stop-color="#18B667"/><stop offset=".703" stop-color="#0E8E3E"/><stop offset="1" stop-color="#005806"/></linearGradient><linearGradient id="paint18_linear" x1="12" x2="20.797" y1="20.323" y2="20.323" gradientUnits="userSpaceOnUse"><stop offset=".011" stop-color="#FCF84A"/><stop offset=".092" stop-color="#ECF64F"/><stop offset=".253" stop-color="#C1EF5B"/><stop offset=".475" stop-color="#7DE56F"/><stop offset=".747" stop-color="#21D789"/></linearGradient><linearGradient id="paint19_linear" x1="12.534" x2="25.465" y1="28.76" y2="39.302" gradientUnits="userSpaceOnUse"><stop offset=".011" stop-color="#FCF84A"/><stop offset=".092" stop-color="#ECF64F"/><stop offset=".253" stop-color="#C1EF5B"/><stop offset=".475" stop-color="#7DE56F"/><stop offset=".747" stop-color="#21D789"/></linearGradient></defs></svg>